<?xml version="1.0" encoding="UTF-8"?>
<svg xmlns="http://www.w3.org/2000/svg" xmlns:xlink="http://www.w3.org/1999/xlink" width="83px" height="98px" viewBox="0 0 83 97" version="1.1">
<g id="surface1">
<path style=" stroke:none;fill-rule:nonzero;fill:rgb(0%,0%,0%);fill-opacity:1;" d="M 72.984375 44.628906 C 69.601562 48.363281 66.277344 52.0625 62.921875 55.730469 C 62.378906 56.324219 62.425781 56.960938 62.546875 57.617188 C 63.316406 61.699219 64.277344 65.742188 64.796875 69.867188 C 65.003906 71.535156 65.148438 73.210938 65.097656 74.898438 C 65.082031 75.386719 64.914062 75.777344 64.574219 76.128906 C 64.097656 76.625 63.570312 77.097656 62.921875 77.277344 C 61.640625 77.628906 61.222656 78.441406 61.230469 79.683594 C 61.238281 80.628906 61.101562 81.574219 60.980469 82.515625 C 60.902344 83.128906 61.035156 83.464844 61.664062 83.777344 C 63.839844 84.855469 65.335938 86.53125 65.851562 88.953125 C 66.320312 91.167969 65.152344 93.195312 62.960938 93.9375 C 60.632812 94.722656 58.265625 94.503906 55.9375 94.011719 C 54.378906 93.683594 52.855469 93.175781 51.355469 92.59375 C 48.953125 91.667969 47.84375 90.035156 47.898438 87.464844 C 47.945312 85.238281 47.738281 83.007812 47.917969 80.777344 C 47.941406 80.449219 47.921875 80.113281 47.921875 79.8125 C 46.242188 79.332031 46.074219 79.445312 45.617188 80.964844 C 45.144531 82.546875 44.652344 84.128906 44.089844 85.679688 C 43.671875 86.835938 43.695312 87.976562 44.042969 89.105469 C 45.371094 93.40625 42.4375 95.914062 39.09375 96.527344 C 37.019531 96.90625 35 97.011719 32.996094 96.273438 C 29.527344 94.992188 28.488281 92.230469 29.582031 89.035156 C 31.0625 84.714844 31.921875 80.226562 33.441406 75.929688 C 33.65625 75.316406 33.480469 74.714844 33.464844 74.113281 C 33.371094 70.851562 34.117188 67.679688 34.496094 64.46875 C 34.570312 63.832031 34.683594 63.199219 34.753906 62.5625 C 34.984375 60.507812 34.539062 59.859375 32.378906 58.890625 C 27.65625 56.769531 22.800781 54.972656 17.960938 53.144531 C 16.777344 52.695312 15.597656 52.246094 14.417969 51.792969 C 14.304688 51.75 14.160156 51.726562 14.082031 51.644531 C 12.707031 50.230469 10.777344 50.835938 9.148438 50.332031 C 8.789062 50.222656 8.277344 50.550781 7.84375 50.699219 C 7.203125 50.921875 6.582031 51.207031 5.929688 51.378906 C 4.882812 51.652344 3.980469 51.339844 3.269531 50.527344 C 2.589844 49.746094 2.320312 48.882812 2.792969 47.902344 C 2.972656 47.527344 3.015625 47.28125 2.585938 46.996094 C 0.558594 45.628906 0.742188 43.625 2.972656 42.523438 C 3.050781 42.484375 3.109375 42.410156 3.207031 42.332031 C 3.109375 41.953125 2.96875 41.582031 2.921875 41.195312 C 2.664062 39.074219 4.398438 37.597656 6.65625 38.027344 C 7.441406 38.179688 8.210938 38.402344 8.984375 38.605469 C 10.28125 38.945312 10.933594 38.503906 11.0625 37.191406 C 11.21875 35.566406 12.554688 34.253906 13.992188 34.300781 C 15.867188 34.367188 16.960938 35.535156 16.953125 37.460938 C 16.945312 39.105469 18.214844 40.757812 19.804688 41.199219 C 20.421875 41.371094 21.027344 41.582031 21.703125 41.796875 C 21.855469 40.875 21.554688 40.078125 21.367188 39.3125 C 20.582031 36.046875 19.734375 32.785156 19.496094 29.429688 C 19.140625 24.460938 19.238281 19.5625 21.640625 14.9375 C 23.980469 10.429688 27.457031 7.207031 32.109375 5.289062 C 35.042969 4.082031 38.164062 3.414062 41.339844 3.09375 C 42.929688 2.933594 44.53125 2.734375 46.128906 2.722656 C 51.910156 2.671875 56.925781 4.511719 61.007812 8.710938 C 66.089844 13.941406 68.933594 20.285156 70.652344 27.226562 C 70.890625 28.183594 70.730469 29.167969 70.914062 30.183594 C 72.527344 29.917969 73.816406 30.296875 74.523438 31.886719 C 75.503906 31.617188 76.453125 31.339844 77.433594 31.75 C 77.847656 31.921875 78.3125 32.113281 78.429688 32.515625 C 78.65625 33.304688 79.179688 33.5625 79.90625 33.777344 C 80.789062 34.039062 81.1875 34.753906 81.226562 35.679688 C 81.265625 36.679688 80.902344 37.617188 79.933594 37.757812 C 78.175781 38.011719 77.195312 39.246094 76.023438 40.28125 C 75.835938 40.445312 75.59375 40.582031 75.554688 40.832031 C 75.296875 42.472656 74.003906 43.421875 72.984375 44.628906 M 35.527344 49.542969 C 36.804688 50.328125 38.222656 50.8125 39.6875 50.988281 C 42.773438 51.351562 45.867188 51.484375 48.988281 51.246094 C 53.054688 50.933594 56.9375 50.042969 60.722656 48.546875 C 64.34375 47.117188 67.085938 44.765625 69.082031 41.492188 C 70.957031 38.421875 70.871094 35.4375 68.785156 32.492188 C 68.148438 31.585938 67.691406 30.574219 67.558594 29.460938 C 67.300781 27.265625 66.25 25.667969 64.246094 24.597656 C 57.929688 21.21875 51.222656 20.398438 44.257812 21.671875 C 39.695312 22.507812 35.53125 24.441406 31.683594 27.023438 C 27.757812 29.65625 25.730469 33.277344 25.8125 38.007812 C 25.847656 40.1875 26.484375 42.28125 26.835938 44.414062 C 26.910156 44.867188 27.253906 45.066406 27.609375 45.257812 C 30.210938 46.664062 32.808594 48.070312 35.527344 49.542969 M 36.398438 62.195312 C 36.292969 63.164062 36.214844 64.140625 36.078125 65.109375 C 35.691406 67.828125 35.117188 70.523438 35.054688 73.285156 C 35.042969 73.84375 35.226562 74.191406 35.722656 74.460938 C 38.046875 75.722656 40.539062 76.578125 43.109375 77.050781 C 47.785156 77.902344 52.496094 77.925781 57.167969 76.898438 C 58.996094 76.496094 60.898438 76.355469 62.582031 75.414062 C 63.210938 75.0625 63.546875 74.640625 63.496094 73.886719 C 63.347656 71.84375 63.203125 69.796875 62.832031 67.785156 C 62.230469 64.511719 61.535156 61.253906 60.945312 57.976562 C 60.734375 56.816406 60.585938 55.667969 61.550781 54.613281 C 65.480469 50.347656 69.351562 46.027344 73.242188 41.722656 C 74.035156 40.851562 74.101562 39.921875 73.371094 38.988281 C 72.839844 38.3125 72.179688 37.765625 71.257812 37.402344 C 70.976562 39.660156 70.007812 41.585938 68.742188 43.378906 C 66.769531 46.171875 64.125 48.058594 60.929688 49.3125 C 57.117188 50.804688 53.222656 51.828125 49.117188 52.09375 C 47.363281 52.207031 45.621094 52.164062 43.867188 52.121094 C 41.070312 52.054688 38.3125 51.875 35.765625 50.589844 C 34.28125 49.839844 32.789062 49.089844 31.371094 48.234375 C 27.707031 46.027344 23.785156 44.429688 19.730469 43.113281 C 18.902344 42.847656 18.484375 43.027344 18.242188 43.855469 C 17.648438 45.882812 16.597656 47.675781 15.273438 49.316406 C 15.140625 49.480469 14.976562 49.632812 15.027344 49.992188 C 15.53125 50.203125 16.082031 50.449219 16.648438 50.664062 C 22.003906 52.699219 27.394531 54.648438 32.628906 56.980469 C 34.828125 57.960938 36.804688 59.144531 36.398438 62.195312 M 65.875 18.535156 C 64.617188 15.996094 63.050781 13.660156 61.226562 11.488281 C 57.515625 7.078125 52.828125 4.722656 46.996094 4.640625 C 44.953125 4.613281 42.925781 4.75 40.914062 5.027344 C 37.394531 5.515625 33.910156 6.191406 30.769531 7.949219 C 26.042969 10.59375 22.898438 14.53125 21.605469 19.742188 C 20.492188 24.226562 20.800781 28.777344 21.65625 33.285156 C 22.195312 36.128906 23.09375 38.898438 23.476562 41.78125 C 23.753906 43.867188 24.183594 44.195312 26.046875 44.351562 C 25.949219 43.773438 25.839844 43.210938 25.757812 42.640625 C 25.441406 40.417969 24.710938 38.253906 25.121094 35.941406 C 25.589844 33.292969 26.5625 30.921875 28.355469 28.867188 C 30.410156 26.503906 33.121094 25.074219 35.832031 23.71875 C 41.457031 20.90625 47.425781 19.757812 53.753906 20.476562 C 57.109375 20.855469 60.261719 21.808594 63.296875 23.191406 C 66.089844 24.464844 68.144531 26.324219 68.296875 29.648438 C 68.316406 30.035156 68.429688 30.53125 69.109375 30.910156 C 69.375 26.347656 67.5625 22.527344 65.875 18.535156 M 36.078125 75.527344 C 35.859375 75.4375 35.65625 75.257812 35.390625 75.367188 C 35.351562 75.417969 35.300781 75.464844 35.285156 75.519531 C 33.816406 80.53125 32.328125 85.535156 30.90625 90.5625 C 30.488281 92.039062 31.382812 93.539062 32.875 94.210938 C 35.171875 95.242188 37.511719 95.109375 39.828125 94.371094 C 42.097656 93.644531 43.292969 92.0625 42.496094 89.671875 C 42.148438 88.632812 41.964844 87.546875 42.167969 86.429688 C 42.511719 84.554688 43.320312 82.824219 43.84375 81.003906 C 44.101562 80.105469 44.546875 79.253906 44.566406 78.242188 C 41.703125 77.472656 38.792969 77.007812 36.078125 75.527344 M 60.988281 85.472656 C 60.59375 85.308594 60.210938 85.070312 59.796875 84.992188 C 59.144531 84.867188 59.042969 84.546875 59.144531 83.953125 C 59.332031 82.839844 59.472656 81.714844 59.570312 80.589844 C 59.664062 79.511719 59.734375 78.425781 59.535156 77.230469 C 56.398438 77.933594 53.332031 78.382812 50.226562 78.496094 C 49.699219 78.515625 49.671875 78.90625 49.660156 79.277344 C 49.542969 82.300781 49.417969 85.320312 49.632812 88.34375 C 49.695312 89.210938 50.046875 89.761719 50.757812 90.191406 C 52.308594 91.125 54.019531 91.65625 55.753906 92.0625 C 57.921875 92.566406 60.121094 92.839844 62.324219 92.167969 C 63.859375 91.699219 64.589844 90.523438 64.210938 89.121094 C 63.753906 87.4375 62.578125 86.363281 60.988281 85.472656 M 10.453125 40.285156 C 9.75 40.535156 9.074219 40.4375 8.378906 40.203125 C 7.59375 39.9375 6.804688 39.675781 5.949219 39.703125 C 5.363281 39.726562 4.894531 39.882812 4.75 40.492188 C 4.617188 41.058594 4.945312 41.445312 5.417969 41.671875 C 6.027344 41.964844 6.667969 42.183594 7.289062 42.453125 C 7.570312 42.574219 7.902344 42.707031 7.84375 43.09375 C 7.785156 43.46875 7.445312 43.53125 7.132812 43.558594 C 6.179688 43.640625 5.230469 43.71875 4.277344 43.78125 C 3.578125 43.824219 3.039062 44.082031 3.050781 44.855469 C 3.066406 45.597656 3.613281 45.804688 4.265625 45.824219 C 5.066406 45.851562 5.871094 45.851562 6.667969 45.910156 C 7.011719 45.9375 7.5 45.867188 7.59375 46.335938 C 7.6875 46.824219 7.195312 46.890625 6.886719 47.046875 C 6.285156 47.355469 5.640625 47.59375 5.058594 47.933594 C 4.652344 48.175781 4.164062 48.484375 4.425781 49.097656 C 4.6875 49.703125 5.21875 49.832031 5.816406 49.679688 C 6.082031 49.609375 6.332031 49.472656 6.582031 49.351562 C 7.804688 48.75 9.0625 48.453125 10.421875 48.824219 C 11.453125 49.105469 12.507812 49.019531 13.554688 48.996094 C 14.183594 48.984375 14.777344 48.84375 15.15625 48.253906 C 15.804688 47.25 16.378906 46.203125 16.996094 45.183594 C 18.203125 43.179688 17.640625 41.574219 16.09375 40.148438 C 15.304688 39.421875 14.953125 38.683594 15.132812 37.578125 C 15.304688 36.511719 14.652344 35.863281 13.835938 36.082031 C 13.140625 36.269531 12.914062 36.847656 12.851562 37.488281 C 12.636719 39.621094 12.605469 39.667969 10.453125 40.285156 M 76.039062 37.828125 C 76.644531 37.011719 77.492188 36.65625 78.484375 36.527344 C 79.007812 36.457031 79.492188 36.207031 79.398438 35.59375 C 79.300781 34.921875 78.734375 35 78.230469 35.054688 C 77.75 35.101562 77.265625 35.269531 76.824219 35 C 76.699219 34.789062 76.78125 34.613281 76.832031 34.441406 C 77.117188 33.414062 76.753906 33.027344 75.667969 33.246094 C 75.21875 33.335938 74.773438 33.457031 74.335938 33.605469 C 73.121094 34.019531 73.0625 34.007812 72.816406 32.773438 C 72.71875 32.277344 72.570312 31.878906 71.988281 31.839844 C 71.207031 31.792969 70.175781 33.175781 70.449219 33.914062 C 70.933594 35.222656 71.125 36.710938 72.742188 37.289062 C 73.058594 37.402344 73.292969 37.769531 73.542969 38.039062 C 74.679688 39.261719 74.679688 39.261719 75.835938 38.066406 C 75.875 38.023438 75.914062 37.976562 76.039062 37.828125 Z M 76.039062 37.828125 "/>
<path style=" stroke:none;fill-rule:nonzero;fill:rgb(0%,0%,0%);fill-opacity:1;" d="M 51.257812 41.066406 C 49.878906 39.683594 48.753906 38.195312 47.871094 36.535156 C 47.191406 35.261719 47.5 34.636719 48.914062 34.464844 C 50.8125 34.238281 52.671875 33.816406 54.539062 33.429688 C 55.894531 33.148438 56.371094 33.527344 56.175781 34.882812 C 55.875 37.007812 55.019531 38.9375 53.832031 40.714844 C 53.265625 41.558594 52.367188 41.652344 51.257812 41.066406 Z M 51.257812 41.066406 "/>
<path style=" stroke:none;fill-rule:nonzero;fill:rgb(0%,0%,0%);fill-opacity:1;" d="M 36.601562 28.425781 C 36.449219 29.027344 36.320312 29.558594 36.195312 30.09375 C 36.128906 30.402344 36.050781 30.761719 35.683594 30.765625 C 35.28125 30.769531 35.167969 30.371094 35.058594 30.058594 C 34.414062 28.253906 35.601562 26.105469 37.621094 25.40625 C 40.21875 24.511719 42.628906 25.925781 42.894531 28.484375 C 42.925781 28.800781 42.976562 29.089844 42.65625 29.320312 C 42.15625 29.339844 42.03125 28.894531 41.828125 28.585938 C 41.484375 28.0625 41.070312 27.617188 40.554688 27.269531 C 39.054688 26.261719 37.605469 26.667969 36.601562 28.425781 Z M 36.601562 28.425781 "/>
<path style=" stroke:none;fill-rule:nonzero;fill:rgb(0%,0%,0%);fill-opacity:1;" d="M 58.011719 23.820312 C 60.65625 23.6875 63.105469 26.621094 62.8125 28.511719 C 62.269531 28.519531 62.140625 28.058594 61.929688 27.722656 C 61.382812 26.851562 60.722656 26.089844 59.796875 25.605469 C 58.433594 24.894531 57.359375 25.453125 57.105469 26.960938 C 57.035156 27.398438 57.1875 27.890625 56.828125 28.265625 C 56.078125 27.960938 55.566406 26.710938 55.722656 25.617188 C 55.886719 24.488281 56.457031 24.019531 58.011719 23.820312 Z M 58.011719 23.820312 "/>
<path style=" stroke:none;fill-rule:nonzero;fill:rgb(0%,0%,0%);fill-opacity:1;" d="M 52.445312 30.105469 C 51.910156 31.1875 51.164062 31.46875 49.789062 31.085938 C 50.386719 30.359375 51.445312 30.160156 51.652344 29.171875 C 52.195312 29.3125 52.398438 29.605469 52.445312 30.105469 Z M 52.445312 30.105469 "/>
<path style=" stroke:none;fill-rule:nonzero;fill:rgb(0%,0%,0%);fill-opacity:1;" d="M 53.597656 53.105469 C 53.375 54.222656 53.914062 54.953125 54.625 55.574219 C 55.488281 56.332031 55.980469 57.296875 56.359375 58.339844 C 56.75 59.417969 56.511719 60.390625 55.734375 61 C 55.007812 61.566406 53.6875 61.625 52.847656 61.121094 C 51.652344 60.40625 51.167969 59.28125 51.082031 57.972656 C 51.039062 57.3125 50.972656 56.628906 51.210938 55.972656 C 51.351562 55.589844 51.109375 55.363281 50.859375 55.109375 C 50.273438 54.523438 49.714844 53.910156 49.15625 53.296875 C 48.730469 52.832031 48.90625 52.507812 49.464844 52.390625 C 50.117188 52.257812 50.796875 52.011719 51.410156 52.589844 C 51.84375 52.007812 52.394531 51.820312 53.054688 51.996094 C 53.597656 52.140625 53.609375 52.578125 53.597656 53.105469 M 54.398438 56.375 C 54.027344 56.152344 53.699219 55.902344 53.492188 55.5 C 53.3125 55.144531 52.957031 55.121094 52.609375 55.1875 C 52.296875 55.246094 52.15625 55.449219 52.105469 55.761719 C 52.066406 55.996094 51.949219 56.214844 51.890625 56.449219 C 51.5625 57.769531 51.757812 58.996094 52.679688 60.035156 C 53.242188 60.671875 54.726562 60.832031 55.316406 60.3125 C 56.003906 59.703125 55.808594 58.929688 55.5 58.207031 C 55.238281 57.589844 54.917969 56.996094 54.398438 56.375 M 51.105469 54.308594 C 51.566406 54.953125 52.054688 54.5 52.472656 54.289062 C 53.035156 54 52.90625 53.40625 52.921875 52.898438 C 52.929688 52.664062 52.847656 52.460938 52.570312 52.460938 C 52.3125 52.457031 52.203125 52.648438 52.152344 52.871094 C 52.070312 53.242188 52.285156 53.660156 51.996094 54.015625 C 51.492188 53.9375 51.34375 53.480469 51.050781 53.191406 C 50.734375 52.886719 50.449219 52.476562 49.925781 52.921875 C 50.195312 53.488281 50.664062 53.808594 51.105469 54.308594 Z M 51.105469 54.308594 "/>
<path style=" stroke:none;fill-rule:nonzero;fill:rgb(0%,0%,0%);fill-opacity:1;" d="M 54.386719 60.191406 C 54.257812 60.21875 54.195312 60.230469 54.136719 60.230469 C 53.53125 60.21875 53.058594 59.96875 52.828125 59.40625 C 52.679688 59.042969 52.851562 58.738281 53.191406 58.574219 C 53.78125 58.289062 54.398438 58.070312 55.027344 58.449219 C 55.34375 58.640625 55.433594 58.992188 55.398438 59.328125 C 55.347656 59.871094 54.941406 60.074219 54.386719 60.191406 Z M 54.386719 60.191406 "/>
<path style=" stroke:none;fill-rule:nonzero;fill:rgb(0%,0%,0%);fill-opacity:1;" d="M 53.515625 56.601562 C 53.84375 56.496094 54.148438 56.367188 54.246094 56.769531 C 54.308594 57.039062 54.125 57.234375 53.886719 57.339844 C 53.300781 57.597656 52.792969 57.523438 52.335938 57.058594 C 52.632812 56.523438 53.121094 56.808594 53.515625 56.601562 Z M 53.515625 56.601562 "/>
</g>
</svg>
